<?xml version="1.0" encoding="UTF-8" standalone="no"?>
<svg
   inkscape:version="1.3 (0e150ed6c4, 2023-07-21)"
   viewBox="0 0 1000 500"
   height="500"
   xml:space="preserve"
   sodipodi:docname="og-image.svg"
   width="1000"
   id="svg5"
   version="1.1"
   inkscape:export-filename="og-image.jpg"
   inkscape:export-xdpi="96"
   inkscape:export-ydpi="96"
   xmlns:inkscape="http://www.inkscape.org/namespaces/inkscape"
   xmlns:sodipodi="http://sodipodi.sourceforge.net/DTD/sodipodi-0.dtd"
   xmlns="http://www.w3.org/2000/svg"
   xmlns:svg="http://www.w3.org/2000/svg"
   xmlns:rdf="http://www.w3.org/1999/02/22-rdf-syntax-ns#"
   xmlns:cc="http://creativecommons.org/ns#"
   xmlns:dc="http://purl.org/dc/elements/1.1/"><title
     id="title30762">blobarcticfox_snug</title><sodipodi:namedview
     inkscape:cy="224.02518"
     inkscape:window-x="-8"
     id="namedview7"
     inkscape:cx="413.23943"
     inkscape:document-units="px"
     bordercolor="#ffffff"
     inkscape:window-y="-8"
     borderopacity="1"
     inkscape:window-height="1129"
     inkscape:pagecheckerboard="1"
     inkscape:window-maximized="1"
     inkscape:deskcolor="#505050"
     inkscape:zoom="0.8905249"
     inkscape:pageopacity="0"
     pagecolor="#505050"
     showgrid="false"
     inkscape:pageshadow="0"
     units="px"
     inkscape:showpageshadow="2"
     inkscape:window-width="1920"
     inkscape:current-layer="svg5"><inkscape:grid
       type="xygrid"
       id="grid10"
       originx="0"
       originy="0"
       spacingy="1"
       spacingx="1"
       units="px"
       visible="false" /></sodipodi:namedview><defs
     id="defs2"><radialGradient
       id="a"
       cx="0"
       cy="0"
       r="1"
       gradientTransform="matrix(50.637212,27.505207,-27.505207,50.637212,0.11228464,-0.00196017)"
       gradientUnits="userSpaceOnUse">&#10;      <stop
   offset="0"
   stop-color="#a4bff7"
   id="stop7" />&#10;      <stop
   offset="1"
   stop-color="#6081e6"
   id="stop8" />&#10;    </radialGradient><radialGradient
       id="b"
       cx="0"
       cy="0"
       r="1"
       gradientTransform="matrix(50.637212,27.505207,-27.505207,50.637212,0.11228464,-0.00196017)"
       gradientUnits="userSpaceOnUse">&#10;      <stop
   offset="0"
   stop-color="#a4bff7"
   id="stop9" />&#10;      <stop
   offset="1"
   stop-color="#6081e6"
   id="stop10" />&#10;    </radialGradient><radialGradient
       id="c"
       cx="0"
       cy="0"
       r="1"
       gradientTransform="matrix(50.637212,27.505207,-27.505207,50.637212,0.11228464,-0.00196017)"
       gradientUnits="userSpaceOnUse">&#10;      <stop
   offset="0"
   stop-color="#a4bff7"
   id="stop11" />&#10;      <stop
   offset="1"
   stop-color="#6081e6"
   id="stop12" />&#10;    </radialGradient><radialGradient
       id="d"
       cx="0"
       cy="0"
       r="1"
       gradientTransform="matrix(50.637212,27.505207,-27.505207,50.637212,0.11228464,-0.00196017)"
       gradientUnits="userSpaceOnUse">&#10;      <stop
   offset="0"
   stop-color="#a4bff7"
   id="stop13" />&#10;      <stop
   offset="1"
   stop-color="#6081e6"
   id="stop14" />&#10;    </radialGradient><radialGradient
       id="e"
       cx="0"
       cy="0"
       r="1"
       gradientTransform="matrix(50.637212,27.505207,-27.505207,50.637212,0.11228464,-0.00196017)"
       gradientUnits="userSpaceOnUse">&#10;      <stop
   offset="0"
   stop-color="#a4bff7"
   id="stop15" />&#10;      <stop
   offset="1"
   stop-color="#6081e6"
   id="stop16" />&#10;    </radialGradient><radialGradient
       id="f"
       cx="0"
       cy="0"
       r="1"
       gradientTransform="matrix(50.637212,27.505207,-27.505207,50.637212,0.11228464,-0.00196017)"
       gradientUnits="userSpaceOnUse">&#10;      <stop
   offset="0"
   stop-color="#a4bff7"
   id="stop17" />&#10;      <stop
   offset="1"
   stop-color="#6081e6"
   id="stop18" />&#10;    </radialGradient></defs><rect
     style="display:inline;fill:#242526;fill-opacity:1;stroke:none;stroke-width:0.5;stroke-linecap:square"
     id="rect1"
     width="1000"
     height="500"
     x="0"
     y="0" /><g
     inkscape:label="Base"
     id="layer1"
     inkscape:groupmode="layer"
     style="display:inline"><path
       id="path20678"
       sodipodi:nodetypes="cssccc"
       style="display:inline;fill:#8599ad;fill-opacity:1;stroke:none;stroke-width:2.54306px;stroke-linecap:butt;stroke-linejoin:miter;stroke-opacity:1"
       inkscape:label="left-ear"
       d="m 374.81378,118.57097 c -10.73251,-56.851047 -9.44041,-99.941448 -4.63546,-106.555213 3.78603,-5.2112681 6.33346,-6.4896801 12.54318,-3.0499651 7.33034,4.0604561 21.51105,26.9475231 56.91761,52.2492121 4.38577,4.726476 9.93869,11.801529 15.33742,18.436847 -36.31382,8.926747 -58.36968,20.273643 -80.16275,38.919119 z" /><path
       style="fill:none;stroke:#bfdef4;stroke-width:16.3397;stroke-linecap:round;stroke-linejoin:round;stroke-dasharray:none;stroke-opacity:1"
       d="m 455.19831,78.476829 c -19.377,4.353964 -51.19719,16.934555 -71.72915,37.555491 -17.3876,17.46294 -38.79309,50.40344 -37.6878,111.51949 0.59949,33.14843 39.16281,27.02315 101.93383,32.32006 55.28267,4.66502 120.50362,-8.30409 157.29059,-1.55428 32.91516,6.03938 48.71385,-9.72893 49.10036,-31.66091 0.38343,-21.75885 1.91324,-55.44005 -22.07574,-95.5635"
       id="path23283"
       sodipodi:nodetypes="csssssc"
       inkscape:label="body-sheen" /><path
       inkscape:label="body"
       sodipodi:nodetypes="ssssssssss"
       id="path117"
       style="display:inline;fill:#eef2f4;fill-opacity:1;stroke:none;stroke-width:2.54306px;stroke-linecap:butt;stroke-linejoin:miter;stroke-opacity:0.4501"
       d="m 455.99668,74.751832 c -49.3246,16.847289 -100.71082,45.847798 -105.23901,137.463648 -0.72028,14.5729 -0.60611,29.76822 18.75563,33.12949 64.17049,11.14024 131.42524,9.12812 195.22233,3.61673 34.28371,-2.96173 43.92797,4.63306 60.96831,1.99303 17.04035,-2.64001 23.58866,-14.15348 26.67673,-20.08296 0.69421,-1.33296 1.43415,-3.70608 2.17636,-11.40455 1.32591,-13.7531 1.06924,-26.22649 -1.50501,-42.67975 -2.45409,-15.68532 -7.38505,-32.74535 -16.77538,-50.72625 C 602.80702,61.972459 513.09181,55.250446 455.99668,74.751832 Z" /><path
       inkscape:label="tail"
       d="m 628.17051,216.04409 c -40.0659,11.84662 -58.6619,4.65955 -84.37235,-2.44149 2.38301,5.15564 5.48423,11.96304 7.52822,17.95248 -43.41164,-19.95252 -79.30889,-23.28011 -124.96446,-13.49852 6.2986,3.53981 15.07795,6.5788 22.57726,11.72083 -24.45086,-1.51844 -62.26312,-14.04857 -89.96844,-17.09947 -8.96378,34.54397 8.18333,58.33764 34.59608,72.55422 -11.18862,3.30765 -22.63942,5.59639 -34.93662,8.88235 34.35298,17.4433 93.03811,11.68067 131.17006,3.86325 -7.4503,8.05351 -16.76779,17.63626 -22.09593,22.70758 65.41843,-10.76564 88.69776,-13.82786 107.00453,-14.91254 -6.14971,5.32114 -13.79276,12.21286 -17.99363,16.82326 72.90081,6.21493 102.11341,-42.92737 100.02573,-89.03774"
       style="display:inline;fill:#eef2f4;fill-opacity:1;stroke:#bfdef4;stroke-width:10.2363;stroke-linecap:round;stroke-linejoin:miter;stroke-dasharray:none;stroke-opacity:1"
       id="path500"
       sodipodi:nodetypes="ccccccccccccc" /><path
       label="hair"
       nodetypes="cccsssccc"
       style="display:inline;fill:#eef2f4;fill-opacity:1;stroke:none;stroke-width:2.44036px;stroke-linecap:butt;stroke-linejoin:miter;stroke-opacity:0.4501"
       d="m 445.52979,29.25172 c 8.66662,16.704616 11.25205,19.312894 25.05103,35.659449 -22.54593,-11.886482 -46.26613,-5.752873 -56.28655,-0.998284 19.62728,3.529895 22.45251,5.122414 31.23552,8.13017 29.20955,10.002887 55.67869,21.187899 80.80673,7.258559 12.2907,-6.813174 35.80421,-21.047907 24.41743,-26.583379 -14.95907,-7.272074 -25.11474,-13.37137 -35.58032,-17.583641 0.95947,6.413316 2.92441,11.313045 5.21572,18.869792 C 501.65233,42.203992 480.78651,32.88218 445.52979,29.25172 Z"
       id="hair" /><path
       style="fill:#8599ad;fill-opacity:1;stroke:none;stroke-width:2.62008px;stroke-linecap:butt;stroke-linejoin:miter;stroke-opacity:0.4501"
       id="right-ear"
       sodipodi:nodetypes="csccccssscssscc"
       label="right-ear"
       d="m 649.91457,15.686672 c -1.31891,-0.146524 -2.7584,-0.197042 -4.32898,-0.145895 -25.1292,0.818554 -78.06677,15.087272 -124.3014,64.112778 5.85884,3.855932 12.49879,6.336526 19.18935,7.535649 2.43306,0.28104 4.96437,0.369183 7.6109,0.25193 3.39066,-0.150234 7.19916,-0.293929 11.19914,-0.49346 9.98723,-2.246819 21.43453,-6.902126 26.19808,-15.710639 10.11307,-18.700602 19.65336,-23.23858 30.25614,-31.282641 10.60281,-8.044063 28.62894,-11.943595 32.24684,-4.816458 3.61792,7.127133 -2.21783,27.352905 -7.37911,40.229925 -11.50221,22.855243 -35.45714,41.801119 -30.44669,59.236349 5.7854,20.13182 19.04262,15.55888 26.62371,-1.15878 13.25663,-29.23328 22.40412,-67.017595 24.48796,-84.004715 1.01997,-8.314283 8.42788,-31.556189 -11.35569,-33.754162 z" /><path
       label="right-ear-fluff"
       d="m 644.72577,27.376728 c 21.88011,2.633176 -1.99908,63.879333 -15.51092,77.860182 -13.51181,13.98088 -15.13156,23.51226 -19.05164,29.39964 -2.5768,-7.64321 -1.86158,-10.74962 -0.56199,-25.44797 -8.13369,2.60358 -22.1868,5.28372 -33.91469,1.17332 3.66933,-7.19201 8.49552,-18.016085 12.39171,-26.709649 -5.12451,1.372004 -16.50387,2.890525 -29.94317,3.336994 24.18268,-2.603968 24.36583,-23.948029 36.46112,-34.230197 17.52827,-14.900717 37.38828,-26.915682 50.12958,-25.38232 z"
       sodipodi:nodetypes="sccccccss"
       style="display:inline;fill:#a0c7de;fill-opacity:1;stroke:none;stroke-width:2.62008px;stroke-linecap:butt;stroke-linejoin:miter;stroke-opacity:1"
       id="right-ear-fluff" /><path
       fill="none"
       d="M 281.72877,374.85839 H 706.42782 V 489.92463 H 281.72877 Z"
       id="path1"
       style="stroke-width:4.18423" /></g><g
     style="display:inline"
     inkscape:groupmode="layer"
     id="layer3"
     inkscape:label="Features"><path
       style="display:inline;fill:none;fill-opacity:1;stroke:#313131;stroke-width:9.86429;stroke-linecap:round;stroke-linejoin:miter;stroke-miterlimit:4;stroke-dasharray:none;stroke-opacity:1"
       inkscape:label="nose-outline"
       d="m 425.6456,190.17907 c -4.95953,-7.10993 -5.36718,-18.30954 -0.2987,-23.68704 4.74514,-5.03445 8.47276,-11.36903 24.67339,-21.20102"
       id="path27175"
       sodipodi:nodetypes="csc" /><path
       d="m 442.69624,172.01419 c 9.18494,-5.01065 36.99811,-6.78819 43.41312,6.55044 1.02572,2.13275 -15.55273,18.16764 -25.70243,18.14512 -9.81382,-0.022 -20.01441,-23.4388 -17.71069,-24.69556 z"
       sodipodi:nodetypes="ssss"
       style="fill:#313131;fill-opacity:1;stroke:none;stroke-width:2.54306px;stroke-linecap:butt;stroke-linejoin:miter;stroke-opacity:1"
       inkscape:label="nose"
       id="path28517" /><path
       style="fill:#313131;fill-opacity:1;stroke-width:10.2363;stroke-linecap:round"
       sodipodi:nodetypes="ssssss"
       d="m 417.29518,114.8443 c -9.51733,-0.23993 -16.45701,5.83412 -16.72078,9.71912 -0.26378,3.885 2.0063,5.63345 7.98401,5.5515 5.64408,-0.0769 21.60392,-1.20914 37.28015,16.23513 4.10434,4.56725 10.84949,0.32526 7.46634,-5.02826 -13.5607,-21.45846 -24.54468,-26.18844 -36.00972,-26.47749 z"
       inkscape:label="left-eye"
       id="left-eye" /><path
       sodipodi:nodetypes="ssssss"
       style="display:inline;fill:#313131;fill-opacity:1;stroke-width:10.2363;stroke-linecap:round"
       d="m 555.08788,128.30343 c 9.21399,2.39568 14.20811,10.14887 13.38957,13.95582 -0.81852,3.80693 -3.48293,4.86109 -9.20593,3.13278 -5.40372,-1.63138 -20.43144,-7.12376 -40.31272,5.31736 -5.20532,3.25733 -10.518,-2.68127 -5.78891,-6.89336 18.9556,-16.88323 30.81834,-18.39853 41.91799,-15.5126 z"
       id="path456-3"
       inkscape:label="right-eye" /></g><g
     fill-rule="nonzero"
     id="g7"
     transform="matrix(4.1842271,0,0,4.1842271,281.72877,374.85839)"
     style="display:inline">&#10;    <path
   fill="url(#a)"
   d="m 2.32,21.85 c 1.4,0 2.21,-0.85 2.21,-2.3 V 14.91 H 8.5 c 4.45,0 7.54,-2.9 7.54,-7.24 0,-4.35 -2.98,-7.24 -7.32,-7.24 h -6.4 c -1.39,0 -2.21,0.85 -2.21,2.3 v 16.82 c 0,1.45 0.82,2.3 2.21,2.3 z M 4.53,11.45 V 3.94 h 3 c 2.54,0 4,1.34 4,3.75 0,2.41 -1.47,3.76 -4,3.76 z"
   id="path2"
   style="fill:url(#a)" />&#10;    <path
   fill="url(#b)"
   d="m 20.52,21.88 c 1.25,0 2.13,-0.76 2.13,-2.23 v -7.04 c 0,-2.07 1.2,-3.49 3.21,-3.49 1.95,0 2.95,1.23 2.95,3.25 v 7.28 c 0,1.47 0.89,2.23 2.13,2.23 1.26,0 2.14,-0.76 2.14,-2.23 v -8.18 c 0,-3.64 -1.99,-5.9 -5.48,-5.9 -2.38,0 -4.1,1.12 -4.93,3.1 H 22.58 V 2.3 c 0,-1.38 -0.78,-2.2 -2.1,-2.2 -1.31,0 -2.1,0.82 -2.1,2.2 v 17.34 c 0,1.47 0.9,2.23 2.14,2.23 z"
   id="path3"
   style="fill:url(#b)" />&#10;    <path
   fill="url(#c)"
   d="m 40.45,21.82 c 1.96,0 3.93,-0.98 4.8,-2.65 h 0.1 v 0.8 c 0.08,1.27 0.89,1.91 2.05,1.91 1.21,0 2.08,-0.73 2.08,-2.15 v -8.95 c 0,-3.17 -2.63,-5.25 -6.65,-5.25 -3.26,0 -5.78,1.16 -6.5,3.04 -0.15,0.32 -0.23,0.63 -0.23,0.96 0,0.97 0.75,1.64 1.79,1.64 0.69,0 1.23,-0.26 1.7,-0.79 0.95,-1.23 1.74,-1.65 3.04,-1.65 1.62,0 2.64,0.85 2.64,2.31 v 1.04 l -3.95,0.24 c -3.93,0.23 -6.13,1.88 -6.13,4.74 0,2.83 2.27,4.76 5.26,4.76 z m 1.4,-3.09 c -1.43,0 -2.4,-0.73 -2.4,-1.9 0,-1.12 0.91,-1.83 2.51,-1.95 l 3.31,-0.2 v 1.14 c 0,1.7 -1.54,2.91 -3.41,2.91 z"
   id="path4"
   style="fill:url(#c)" />&#10;    <path
   fill="url(#d)"
   d="m 54.37,21.88 c 1.26,0 2.14,-0.76 2.14,-2.23 v -7.09 c 0,-2.03 1.21,-3.44 3.13,-3.44 1.92,0 2.89,1.17 2.89,3.22 v 7.31 c 0,1.47 0.88,2.23 2.14,2.23 1.24,0 2.13,-0.76 2.13,-2.23 v -8.2 c 0,-3.68 -1.96,-5.87 -5.45,-5.87 -2.41,0 -4,1.07 -4.83,3.01 H 56.43 V 7.72 c 0,-1.35 -0.85,-2.17 -2.14,-2.17 -1.28,0 -2.06,0.82 -2.06,2.15 v 11.95 c 0,1.47 0.9,2.23 2.14,2.23 z"
   id="path5"
   style="fill:url(#d)" />&#10;    <path
   fill="url(#e)"
   d="m 71.65,27.17 c 1.26,0 2.14,-0.76 2.14,-2.23 v -6 h 0.09 a 5.15,5.15 0 0 0 4.88,2.88 c 3.92,0 6.35,-3.05 6.35,-8.1 0,-5.07 -2.44,-8.1 -6.43,-8.1 A 5.12,5.12 0 0 0 73.82,8.61 H 73.73 V 7.76 c 0,-1.45 -0.88,-2.21 -2.1,-2.21 -1.24,0 -2.11,0.76 -2.11,2.2 v 17.2 c 0,1.46 0.89,2.22 2.13,2.22 z m 5.6,-8.8 c -2.1,0 -3.47,-1.8 -3.47,-4.65 0,-2.81 1.37,-4.67 3.47,-4.67 2.14,0 3.49,1.83 3.49,4.67 0,2.86 -1.35,4.66 -3.5,4.66 z"
   id="path6"
   style="fill:url(#e)" />&#10;    <path
   fill="url(#f)"
   d="m 89.61,27.39 c 3.44,0 5.26,-1.5 6.73,-5.55 l 4.81,-13.1 a 4,4 0 0 0 0.24,-1.26 c 0,-1.13 -0.85,-1.93 -2.08,-1.93 -1.1,0 -1.71,0.51 -2.07,1.7 l -3.4,10.9 H 93.76 L 90.35,7.28 C 89.99,6.03 89.41,5.55 88.28,5.55 c -1.26,0 -2.21,0.83 -2.21,1.99 0,0.35 0.09,0.82 0.25,1.26 l 5,13.21 -0.21,0.56 c -0.52,1.1 -1.32,1.42 -2.07,1.42 l -0.75,-0.01 c -0.96,0 -1.56,0.54 -1.56,1.4 0,1.29 1,2 2.88,2 z"
   id="path7"
   style="fill:url(#f)" />&#10;  </g><text
     xml:space="preserve"
     style="font-style:normal;font-variant:normal;font-weight:normal;font-stretch:normal;font-size:66.9476px;font-family:'Noto Sans';-inkscape-font-specification:'Noto Sans';display:inline;fill:#000000;stroke:#000000;stroke-width:2.09211;stroke-linecap:square;stroke-dasharray:none;stroke-opacity:1"
     x="223.60916"
     y="570.32812"
     id="text18"
     transform="rotate(-15.084876)"><tspan
       sodipodi:role="line"
       id="tspan18"
       x="0"
       y="0"
       style="font-style:normal;font-variant:normal;font-weight:bold;font-stretch:normal;font-size:66.9476px;font-family:'Noto Sans';-inkscape-font-specification:'Noto Sans Bold';fill:#ff9000;fill-opacity:1;stroke:#000000;stroke-width:2.09211;stroke-dasharray:none;stroke-opacity:1">Foxified</tspan></text><metadata
     id="metadata30760"><rdf:RDF><cc:Work
         rdf:about=""><dc:rights><cc:Agent><dc:title>Blobfox team (https://git.shadamethyst.xyz/adri326/blobfox), licensed under the Apache 2.0 License</dc:title></cc:Agent></dc:rights><dc:title>blobarcticfox_snug</dc:title><dc:creator><cc:Agent><dc:title>Feuerfuchs</dc:title></cc:Agent></dc:creator><dc:source>https://git.shadamethyst.xyz/adri326/blobfox</dc:source></cc:Work></rdf:RDF></metadata></svg>
