<?xml version="1.0" encoding="UTF-8" standalone="no"?>
<svg
   inkscape:version="1.3 (0e150ed6c4, 2023-07-21)"
   viewBox="0 0 128 128"
   height="128"
   xml:space="preserve"
   sodipodi:docname="logo-4e67d38a.svg"
   width="128"
   id="svg5"
   version="1.1"
   xmlns:inkscape="http://www.inkscape.org/namespaces/inkscape"
   xmlns:sodipodi="http://sodipodi.sourceforge.net/DTD/sodipodi-0.dtd"
   xmlns:xlink="http://www.w3.org/1999/xlink"
   xmlns="http://www.w3.org/2000/svg"
   xmlns:svg="http://www.w3.org/2000/svg"
   xmlns:rdf="http://www.w3.org/1999/02/22-rdf-syntax-ns#"
   xmlns:cc="http://creativecommons.org/ns#"
   xmlns:dc="http://purl.org/dc/elements/1.1/"><title
     id="title30762">blobarcticfox_snug</title><sodipodi:namedview
     inkscape:cy="60.498028"
     inkscape:window-x="-8"
     id="namedview7"
     inkscape:cx="83.377792"
     inkscape:document-units="px"
     bordercolor="#ffffff"
     inkscape:window-y="-8"
     borderopacity="1"
     inkscape:window-height="1129"
     inkscape:pagecheckerboard="1"
     inkscape:window-maximized="1"
     inkscape:deskcolor="#505050"
     inkscape:zoom="3.5620996"
     inkscape:pageopacity="0"
     pagecolor="#505050"
     showgrid="false"
     inkscape:pageshadow="0"
     units="px"
     inkscape:showpageshadow="2"
     inkscape:window-width="1920"
     inkscape:current-layer="layer1"><inkscape:grid
       type="xygrid"
       id="grid10"
       originx="0"
       originy="0"
       spacingy="1"
       spacingx="1"
       units="px"
       visible="false" /></sodipodi:namedview><defs
     id="defs2" /><g
     inkscape:groupmode="layer"
     id="layer2"
     inkscape:label="ref"
     style="display:none"><image
       width="127.99999"
       height="127.99999"
       style="display:inline;image-rendering:optimizeSpeed"
       x="-0.18173571"
       xlink:href="../original/blobfoxsnug.png"
       y="7.7926092"
       preserveAspectRatio="none"
       id="image6735"
       inkscape:label="blobfoxsnug" /><image
       width="127.99999"
       id="image450"
       inkscape:label="blobfox"
       x="0"
       style="display:none;image-rendering:optimizeSpeed"
       preserveAspectRatio="none"
       xlink:href="..%5C..%5C..%5Cblobfox%5Cblobfox.png"
       height="127.99999"
       y="0" /></g><g
     inkscape:label="Base"
     id="layer1"
     inkscape:groupmode="layer"
     style="display:inline;"><path
       id="path20678"
       sodipodi:nodetypes="cssccc"
       style="display:inline;fill:#8599ad;fill-opacity:1;stroke:none;stroke-width:0.808961px;stroke-linecap:butt;stroke-linejoin:miter;stroke-opacity:1"
       inkscape:label="left-ear"
       d="M 22.988514,48.136718 C 19.574449,30.052121 19.985473,16.344854 21.513951,14.240983 c 1.204354,-1.65773 2.014707,-2.064399 3.990049,-0.970209 2.331816,1.291651 6.842769,8.572139 18.10577,16.62073 1.395134,1.503515 3.161544,3.754124 4.878907,5.864851 -11.551605,2.839642 -18.56768,6.449145 -25.500163,12.380363 z" /><path
       style="fill:none;stroke:#bfdef4;stroke-width:5.19774;stroke-linecap:round;stroke-linejoin:round;stroke-dasharray:none;stroke-opacity:1"
       d="m 48.559227,35.382575 c -6.163918,1.385017 -16.286076,5.386964 -22.817393,11.946585 -5.531081,5.555048 -12.340272,16.033581 -11.988675,35.474898 0.190701,10.544677 12.457881,8.596195 32.425652,10.281166 17.585688,1.483968 38.33279,-2.641569 50.034903,-0.494422 10.470476,1.921156 15.496116,-3.094821 15.619066,-10.071492 0.12197,-6.921594 0.60861,-17.635749 -7.0224,-30.399214"
       id="path23283"
       sodipodi:nodetypes="csssssc"
       inkscape:label="body-sheen" /><path
       inkscape:label="body"
       sodipodi:nodetypes="ssssssssss"
       id="path117"
       style="display:inline;fill:#eef2f4;fill-opacity:1;stroke:none;stroke-width:0.808961px;stroke-linecap:butt;stroke-linejoin:miter;stroke-opacity:0.4501"
       d="M 48.813191,34.197635 C 33.122794,39.55684 16.776589,48.782044 15.336149,77.925494 c -0.229124,4.635711 -0.192806,9.469418 5.966256,10.538655 20.412948,3.543764 41.807013,2.903697 62.101178,1.150498 10.905818,-0.942141 13.973702,1.4738 19.394317,0.633992 5.42062,-0.8398 7.50367,-4.502292 8.486,-6.388486 0.22083,-0.424023 0.45621,-1.178924 0.69231,-3.627844 0.42178,-4.374927 0.34013,-8.342774 -0.47875,-13.576636 C 110.7168,61.666094 109.14824,56.239216 106.16113,50.519404 95.514278,30.132454 66.975432,27.994149 48.813191,34.197635 Z" /><path
       inkscape:label="tail"
       d="m 103.58253,79.143396 c -12.745159,3.768465 -18.660639,1.482224 -26.839259,-0.77665 0.758048,1.640034 1.744563,3.805501 2.394764,5.710769 C 65.328582,77.730521 53.909489,76.671998 39.38623,79.78357 c 2.003616,1.126033 4.796371,2.092748 7.181938,3.728455 C 38.79023,83.029 26.761965,79.043106 17.948767,78.0726 c -2.851424,10.988604 2.603155,18.557487 11.005181,23.07985 -3.559155,1.05218 -7.20171,1.78024 -11.11351,2.82552 10.927852,5.5488 29.595878,3.71568 41.725838,1.22892 -2.369978,2.56186 -5.333916,5.61018 -7.028822,7.22339 20.809922,-3.4246 28.215189,-4.39871 34.038663,-4.74375 -1.956252,1.69268 -4.387544,3.88497 -5.723861,5.35156 23.190104,1.977 32.482774,-13.655404 31.818674,-28.323341"
       style="display:inline;fill:#eef2f4;fill-opacity:1;stroke:#bfdef4;stroke-width:3.25623;stroke-linecap:round;stroke-linejoin:miter;stroke-dasharray:none;stroke-opacity:1"
       id="path500"
       sodipodi:nodetypes="ccccccccccccc" /><path
       label="hair"
       nodetypes="cccsssccc"
       style="display:inline;fill:#eef2f4;fill-opacity:1;stroke:none;stroke-width:0.776289px;stroke-linecap:butt;stroke-linejoin:miter;stroke-opacity:0.4501"
       d="m 45.483622,19.723827 c 2.756897,5.31382 3.579335,6.143526 7.968857,11.343445 -7.17197,-3.781148 -14.717484,-1.830017 -17.905028,-0.317559 6.243535,1.122877 7.142255,1.629465 9.936171,2.586247 9.291701,3.181967 17.711666,6.739974 25.705017,2.308983 3.909731,-2.167304 11.389496,-6.695442 7.767304,-8.456303 -4.758553,-2.313282 -7.989122,-4.253498 -11.318272,-5.593442 0.305209,2.040107 0.930267,3.598735 1.659143,6.002573 -5.960337,-3.753763 -12.597857,-6.719077 -23.813192,-7.873944 z"
       id="hair" /><path
       style="fill:#8599ad;fill-opacity:1;stroke:none;stroke-width:0.833461px;stroke-linecap:butt;stroke-linejoin:miter;stroke-opacity:0.4501"
       id="right-ear"
       sodipodi:nodetypes="csccccssscssscc"
       label="right-ear"
       d="m 110.49942,15.408719 c -0.41955,-0.04661 -0.87746,-0.06268 -1.37707,-0.04641 -7.99372,0.260386 -24.833419,4.799335 -39.54088,20.394588 1.863723,1.226591 3.975926,2.01568 6.104226,2.397127 0.773968,0.0894 1.57919,0.117439 2.421064,0.08014 1.078584,-0.04779 2.290088,-0.0935 3.562501,-0.156972 3.176987,-0.714724 6.818429,-2.1956 8.333735,-4.997631 3.217019,-5.948753 6.25183,-7.392306 9.624628,-9.951161 3.372806,-2.558856 9.107006,-3.799316 10.257876,-1.532139 1.15088,2.267176 -0.7055,8.701093 -2.34733,12.797336 -3.65891,7.270363 -11.279091,13.297143 -9.685241,18.843373 1.840364,6.404031 6.057551,4.949355 8.469131,-0.368612 4.217,-9.299249 7.12686,-21.318627 7.78974,-26.722313 0.32446,-2.644814 2.68095,-10.038178 -3.6123,-10.737364 z" /><path
       label="right-ear-fluff"
       d="m 108.84884,19.127383 c 6.96017,0.837626 -0.63592,20.320328 -4.9341,24.767707 -4.298175,4.447385 -4.813424,7.479364 -6.06042,9.352168 -0.819693,-2.431341 -0.592179,-3.419507 -0.178772,-8.095125 -2.587367,0.828214 -7.05773,1.680778 -10.788429,0.37324 1.167232,-2.287812 2.702467,-5.731006 3.941862,-8.496471 -1.63013,0.436441 -5.249962,0.91949 -9.525066,1.061514 7.692627,-0.828335 7.750888,-7.617985 11.59846,-10.888793 5.575827,-4.739991 11.893395,-8.56201 15.946465,-8.07424 z"
       sodipodi:nodetypes="sccccccss"
       style="display:inline;fill:#a0c7de;fill-opacity:1;stroke:none;stroke-width:0.833461px;stroke-linecap:butt;stroke-linejoin:miter;stroke-opacity:1"
       id="right-ear-fluff" /></g><g
     style="display:inline;"
     inkscape:groupmode="layer"
     id="layer3"
     inkscape:label="Features"><path
       style="fill:none;fill-opacity:1;stroke:#313131;stroke-width:3.13788;stroke-linecap:round;stroke-linejoin:miter;stroke-miterlimit:4;stroke-dasharray:none;stroke-opacity:1"
       inkscape:label="nose-outline"
       d="m 39.158366,70.915606 c -1.577651,-2.261705 -1.707328,-5.824356 -0.09502,-7.534965 1.509453,-1.601482 2.695227,-3.616542 7.848727,-6.744148"
       id="path27175"
       sodipodi:nodetypes="csc" /><path
       d="m 44.582258,65.137269 c 2.921775,-1.593912 11.769279,-2.159358 13.809924,2.083725 0.326287,0.678439 -4.947398,5.779217 -8.176069,5.772053 -3.121824,-0.007 -6.366681,-7.455999 -5.633855,-7.855778 z"
       sodipodi:nodetypes="ssss"
       style="fill:#313131;fill-opacity:1;stroke:none;stroke-width:0.808961px;stroke-linecap:butt;stroke-linejoin:miter;stroke-opacity:1"
       inkscape:label="nose"
       id="path28517" /><path
       style="fill:#313131;fill-opacity:1;stroke-width:3.25623;stroke-linecap:round"
       sodipodi:nodetypes="ssssss"
       d="m 36.502054,46.951245 c -3.027507,-0.07632 -5.235054,1.855862 -5.318961,3.091701 -0.08391,1.235839 0.638213,1.792028 2.539752,1.76596 1.795412,-0.02446 6.872314,-0.384633 11.858999,5.164474 1.305612,1.452864 3.451278,0.103466 2.37508,-1.599515 -4.313726,-6.826042 -7.807783,-8.330669 -11.45487,-8.42262 z"
       inkscape:label="left-eye"
       id="left-eye" /><path
       sodipodi:nodetypes="ssssss"
       style="display:inline;fill:#313131;fill-opacity:1;stroke-width:3.25623;stroke-linecap:round"
       d="m 80.334588,51.23266 c 2.931015,0.76208 4.519668,3.228408 4.259288,4.439417 -0.260376,1.211003 -1.107938,1.546334 -2.928452,0.996551 -1.718951,-0.518949 -6.49934,-2.266102 -12.823675,1.691479 -1.655835,1.036172 -3.345825,-0.852925 -1.84148,-2.19281 6.029871,-5.370639 9.803464,-5.852665 13.334319,-4.934637 z"
       id="path456-3"
       inkscape:label="right-eye" /></g><metadata
     id="metadata30760"><rdf:RDF><cc:Work
         rdf:about=""><dc:rights><cc:Agent><dc:title>Blobfox team (https://git.shadamethyst.xyz/adri326/blobfox), licensed under the Apache 2.0 License</dc:title></cc:Agent></dc:rights><dc:title>blobarcticfox_snug</dc:title><dc:creator><cc:Agent><dc:title>Feuerfuchs</dc:title></cc:Agent></dc:creator><dc:source>https://git.shadamethyst.xyz/adri326/blobfox</dc:source></cc:Work></rdf:RDF></metadata></svg>
