<?xml version="1.0" encoding="UTF-8" standalone="no"?>
<svg
   xml:space="preserve"
   fill-rule="evenodd"
   stroke-linejoin="round"
   stroke-miterlimit="2"
   clip-rule="evenodd"
   viewBox="0 0 102 28"
   version="1.1"
   id="svg18"
   sodipodi:docname="logo-text.svg"
   inkscape:version="1.3 (0e150ed6c4, 2023-07-21)"
   xmlns:inkscape="http://www.inkscape.org/namespaces/inkscape"
   xmlns:sodipodi="http://sodipodi.sourceforge.net/DTD/sodipodi-0.dtd"
   xmlns="http://www.w3.org/2000/svg"
   xmlns:svg="http://www.w3.org/2000/svg"><sodipodi:namedview
   id="namedview18"
   pagecolor="#ffffff"
   bordercolor="#000000"
   borderopacity="0.25"
   inkscape:showpageshadow="2"
   inkscape:pageopacity="0.0"
   inkscape:pagecheckerboard="0"
   inkscape:deskcolor="#d1d1d1"
   inkscape:zoom="9.3171717"
   inkscape:cx="49.478534"
   inkscape:cy="11.001193"
   inkscape:window-width="1920"
   inkscape:window-height="1129"
   inkscape:window-x="-8"
   inkscape:window-y="-8"
   inkscape:window-maximized="1"
   inkscape:current-layer="svg18" />&#10;  <path
   fill="none"
   d="M0 0h101.5v27.5H0z"
   id="path1" />&#10;  <g
   fill-rule="nonzero"
   id="g7">&#10;    <path
   fill="url(#a)"
   d="M2.32 21.85c1.4 0 2.21-.85 2.21-2.3v-4.64H8.5c4.45 0 7.54-2.9 7.54-7.24 0-4.35-2.98-7.24-7.32-7.24h-6.4C.93.43.11 1.28.11 2.73v16.82c0 1.45.82 2.3 2.21 2.3Zm2.21-10.4V3.94h3c2.54 0 4 1.34 4 3.75s-1.47 3.76-4 3.76h-3Z"
   id="path2" />&#10;    <path
   fill="url(#b)"
   d="M20.52 21.88c1.25 0 2.13-.76 2.13-2.23v-7.04c0-2.07 1.2-3.49 3.21-3.49 1.95 0 2.95 1.23 2.95 3.25v7.28c0 1.47.89 2.23 2.13 2.23 1.26 0 2.14-.76 2.14-2.23v-8.18c0-3.64-1.99-5.9-5.48-5.9-2.38 0-4.1 1.12-4.93 3.1h-.09V2.3c0-1.38-.78-2.2-2.1-2.2-1.31 0-2.1.82-2.1 2.2v17.34c0 1.47.9 2.23 2.14 2.23Z"
   id="path3" />&#10;    <path
   fill="url(#c)"
   d="M40.45 21.82c1.96 0 3.93-.98 4.8-2.65h.1v.8c.08 1.27.89 1.91 2.05 1.91 1.21 0 2.08-.73 2.08-2.15v-8.95c0-3.17-2.63-5.25-6.65-5.25-3.26 0-5.78 1.16-6.5 3.04-.15.32-.23.63-.23.96 0 .97.75 1.64 1.79 1.64.69 0 1.23-.26 1.7-.79.95-1.23 1.74-1.65 3.04-1.65 1.62 0 2.64.85 2.64 2.31v1.04l-3.95.24c-3.93.23-6.13 1.88-6.13 4.74 0 2.83 2.27 4.76 5.26 4.76Zm1.4-3.09c-1.43 0-2.4-.73-2.4-1.9 0-1.12.91-1.83 2.51-1.95l3.31-.2v1.14c0 1.7-1.54 2.91-3.41 2.91Z"
   id="path4" />&#10;    <path
   fill="url(#d)"
   d="M54.37 21.88c1.26 0 2.14-.76 2.14-2.23v-7.09c0-2.03 1.21-3.44 3.13-3.44s2.89 1.17 2.89 3.22v7.31c0 1.47.88 2.23 2.14 2.23 1.24 0 2.13-.76 2.13-2.23v-8.2c0-3.68-1.96-5.87-5.45-5.87-2.41 0-4 1.07-4.83 3.01h-.09v-.87c0-1.35-.85-2.17-2.14-2.17-1.28 0-2.06.82-2.06 2.15v11.95c0 1.47.9 2.23 2.14 2.23Z"
   id="path5" />&#10;    <path
   fill="url(#e)"
   d="M71.65 27.17c1.26 0 2.14-.76 2.14-2.23v-6h.09a5.15 5.15 0 0 0 4.88 2.88c3.92 0 6.35-3.05 6.35-8.1 0-5.07-2.44-8.1-6.43-8.1a5.12 5.12 0 0 0-4.86 2.99h-.09v-.85c0-1.45-.88-2.21-2.1-2.21-1.24 0-2.11.76-2.11 2.2v17.2c0 1.46.89 2.22 2.13 2.22Zm5.6-8.8c-2.1 0-3.47-1.8-3.47-4.65 0-2.81 1.37-4.67 3.47-4.67 2.14 0 3.49 1.83 3.49 4.67 0 2.86-1.35 4.66-3.5 4.66Z"
   id="path6" />&#10;    <path
   fill="url(#f)"
   d="M89.61 27.39c3.44 0 5.26-1.5 6.73-5.55l4.81-13.1a4 4 0 0 0 .24-1.26c0-1.13-.85-1.93-2.08-1.93-1.1 0-1.71.51-2.07 1.7l-3.4 10.9h-.08L90.35 7.28c-.36-1.25-.94-1.73-2.07-1.73-1.26 0-2.21.83-2.21 1.99 0 .35.09.82.25 1.26l5 13.21-.21.56c-.52 1.1-1.32 1.42-2.07 1.42l-.75-.01c-.96 0-1.56.54-1.56 1.4 0 1.29 1 2 2.88 2Z"
   id="path7" />&#10;  </g>&#10;  <defs
   id="defs18">&#10;    <radialGradient
   id="a"
   cx="0"
   cy="0"
   r="1"
   gradientTransform="rotate(28.51 .06 .22) scale(57.6252)"
   gradientUnits="userSpaceOnUse">&#10;      <stop
   offset="0"
   stop-color="#a4bff7"
   id="stop7" />&#10;      <stop
   offset="1"
   stop-color="#6081e6"
   id="stop8" />&#10;    </radialGradient>&#10;    <radialGradient
   id="b"
   cx="0"
   cy="0"
   r="1"
   gradientTransform="rotate(28.51 .06 .22) scale(57.6252)"
   gradientUnits="userSpaceOnUse">&#10;      <stop
   offset="0"
   stop-color="#a4bff7"
   id="stop9" />&#10;      <stop
   offset="1"
   stop-color="#6081e6"
   id="stop10" />&#10;    </radialGradient>&#10;    <radialGradient
   id="c"
   cx="0"
   cy="0"
   r="1"
   gradientTransform="rotate(28.51 .06 .22) scale(57.6252)"
   gradientUnits="userSpaceOnUse">&#10;      <stop
   offset="0"
   stop-color="#a4bff7"
   id="stop11" />&#10;      <stop
   offset="1"
   stop-color="#6081e6"
   id="stop12" />&#10;    </radialGradient>&#10;    <radialGradient
   id="d"
   cx="0"
   cy="0"
   r="1"
   gradientTransform="rotate(28.51 .06 .22) scale(57.6252)"
   gradientUnits="userSpaceOnUse">&#10;      <stop
   offset="0"
   stop-color="#a4bff7"
   id="stop13" />&#10;      <stop
   offset="1"
   stop-color="#6081e6"
   id="stop14" />&#10;    </radialGradient>&#10;    <radialGradient
   id="e"
   cx="0"
   cy="0"
   r="1"
   gradientTransform="rotate(28.51 .06 .22) scale(57.6252)"
   gradientUnits="userSpaceOnUse">&#10;      <stop
   offset="0"
   stop-color="#a4bff7"
   id="stop15" />&#10;      <stop
   offset="1"
   stop-color="#6081e6"
   id="stop16" />&#10;    </radialGradient>&#10;    <radialGradient
   id="f"
   cx="0"
   cy="0"
   r="1"
   gradientTransform="rotate(28.51 .06 .22) scale(57.6252)"
   gradientUnits="userSpaceOnUse">&#10;      <stop
   offset="0"
   stop-color="#a4bff7"
   id="stop17" />&#10;      <stop
   offset="1"
   stop-color="#6081e6"
   id="stop18" />&#10;    </radialGradient>&#10;  </defs>&#10;<text
   xml:space="preserve"
   style="font-style:normal;font-variant:normal;font-weight:normal;font-stretch:normal;font-size:16px;font-family:'Noto Sans';-inkscape-font-specification:'Noto Sans';fill:#000000;stroke-width:0.5;stroke-linecap:square;stroke:#000000;stroke-opacity:1;stroke-dasharray:none"
   x="11.745339"
   y="32.280037"
   id="text18"
   transform="rotate(-15.084876)"><tspan
     sodipodi:role="line"
     id="tspan18"
     x="11.745339"
     y="32.280037"
     style="font-style:normal;font-variant:normal;font-weight:bold;font-stretch:normal;font-size:16px;font-family:'Noto Sans';-inkscape-font-specification:'Noto Sans Bold';fill:#ff9000;fill-opacity:1;stroke:#000000;stroke-opacity:1;stroke-width:0.5;stroke-dasharray:none">Foxified</tspan></text></svg>
